<svg id="visual" viewBox="0 0 900 600" width="900" height="600" xmlns="http://www.w3.org/2000/svg" xmlns:xlink="http://www.w3.org/1999/xlink" version="1.1"><rect x="0" y="0" width="900" height="600" fill="#6600EB"></rect><g fill="#a2faf5"><circle r="49" cx="828" cy="190"></circle><circle r="43" cx="47" cy="454"></circle><circle r="44" cx="64" cy="217"></circle><circle r="47" cx="564" cy="281"></circle><circle r="42" cx="219" cy="388"></circle><circle r="42" cx="393" cy="270"></circle><circle r="45" cx="424" cy="456"></circle><circle r="47" cx="601" cy="545"></circle><circle r="47" cx="465" cy="94"></circle><circle r="46" cx="500" cy="523"></circle><circle r="47" cx="675" cy="146"></circle><circle r="43" cx="393" cy="24"></circle><circle r="47" cx="885" cy="90"></circle><circle r="43" cx="739" cy="499"></circle><circle r="42" cx="519" cy="385"></circle><circle r="47" cx="155" cy="275"></circle><circle r="44" cx="267" cy="235"></circle><circle r="47" cx="615" cy="63"></circle><circle r="46" cx="899" cy="378"></circle></g></svg>