<svg id="visual" viewBox="0 0 900 600" width="900" height="600" xmlns="http://www.w3.org/2000/svg" xmlns:xlink="http://www.w3.org/1999/xlink" version="1.1"><path d="M0 477L16.7 485.5C33.3 494 66.7 511 100 509.2C133.3 507.3 166.7 486.7 200 488C233.3 489.3 266.7 512.7 300 512.5C333.3 512.3 366.7 488.7 400 491.3C433.3 494 466.7 523 500 531.8C533.3 540.7 566.7 529.3 600 525C633.3 520.7 666.7 523.3 700 518C733.3 512.7 766.7 499.3 800 495.7C833.3 492 866.7 498 883.3 501L900 504L900 601L883.3 601C866.7 601 833.3 601 800 601C766.7 601 733.3 601 700 601C666.7 601 633.3 601 600 601C566.7 601 533.3 601 500 601C466.7 601 433.3 601 400 601C366.7 601 333.3 601 300 601C266.7 601 233.3 601 200 601C166.7 601 133.3 601 100 601C66.7 601 33.3 601 16.7 601L0 601Z" fill="#002233" stroke-linecap="round" stroke-linejoin="miter"></path></svg>